<svg xmlns="http://www.w3.org/2000/svg" viewBox="0 0 1868.64 412.51"><defs><style>.cls-1{font-size:352.97px;font-family:Raleway-Bold, Raleway;font-weight:700;}.cls-2{fill:#00a2ff;}.cls-3{letter-spacing:-0.03em;}</style></defs><title>balkod-logo</title><g id="katman_2" data-name="katman 2"><g id="_balkod_" data-name="&lt;balkod/&gt;"><g id="_balkod_2" data-name="&lt;balkod    &gt;"><text class="cls-1" transform="translate(0 331.68)"><tspan class="cls-2">&lt;</tspan><tspan x="181.78" y="0">bal</tspan><tspan class="cls-3" x="720.04" y="0">k</tspan><tspan x="907.47" y="0">od </tspan><tspan class="cls-2" x="1433.74" y="0" xml:space="preserve">   &gt;</tspan></text></g><g id="Kahve"><path d="M1564.77,272.67H1455.56a35.33,35.33,0,0,1-35.23-35.23V125.21a12.91,12.91,0,0,1,12.88-12.88H1600V237.44A35.33,35.33,0,0,1,1564.77,272.67ZM1600,112.33v29.5s9.73,0,15.25.23,25.92,8.56,25.92,30.09c0,23.06-19.21,30.61-28.38,30.61H1600V232h11.69s58.64.53,58.64-58.64-57.61-60.91-57.61-60.91Z"/><path d="M1381.17,292.15h280a0,0,0,0,1,0,0v0A38.18,38.18,0,0,1,1623,330.33H1419.35a38.18,38.18,0,0,1-38.18-38.18v0A0,0,0,0,1,1381.17,292.15Z"/><path class="cls-2" d="M1471.83,12.5c26.63,18.88-52.83,56.83,19.54,78.71C1441.17,55.5,1523.33,37,1471.83,12.5Z"/><path class="cls-2" d="M1509.08,0c40,42.32-50,47.25,13.63,91.21C1485.29,53.79,1576.83,39.25,1509.08,0Z"/><path class="cls-2" d="M1556.83,23.25c14,24.5-46.67,38.75,2.25,68C1534.87,60,1590.58,55.75,1556.83,23.25Z"/></g></g></g></svg>