<svg xmlns="http://www.w3.org/2000/svg" viewBox="0 0 72.04 26.86"><defs><style>.cls-1{fill:#fff;}</style></defs><title>ubz-logo-w</title><g id="katman_2" data-name="katman 2"><g id="katman_1-2" data-name="katman 1"><path class="cls-1" d="M4.48,0V17.36a5,5,0,0,0,5,5,5,5,0,0,0,5-5V0H19V17.36a9.51,9.51,0,1,1-19,0V0Z"/><path class="cls-1" d="M27.13,0h9.06a7.74,7.74,0,0,1,7.75,7.75,6.37,6.37,0,0,1-1.86,4.62,7.11,7.11,0,0,1,3.75,6.41,7.76,7.76,0,0,1-7.75,7.75h-11Zm9.06,11.16a3.26,3.26,0,0,0,3.27-3.31,3.32,3.32,0,0,0-3.27-3.37H31.61v6.68ZM38.09,22a3.32,3.32,0,0,0,3.27-3.37,3.26,3.26,0,0,0-3.27-3.31H31.61V22Z"/><path class="cls-1" d="M64.22,4.48H51.86V0H72l-13,22H72v4.48H51.24Z"/></g></g></svg>